<svg xmlns="http://www.w3.org/2000/svg" width="1200" height="630" viewBox="0 0 1200 630" role="img" aria-label="未来分岐占い">
  <defs>
    <linearGradient id="bg" x1="0" y1="0" x2="1" y2="1">
      <stop offset="0" stop-color="#111936"/>
      <stop offset="0.58" stop-color="#17203f"/>
      <stop offset="1" stop-color="#2d235d"/>
    </linearGradient>
    <radialGradient id="glow" cx="48%" cy="42%" r="52%">
      <stop offset="0" stop-color="#d8c9ff" stop-opacity=".42"/>
      <stop offset=".55" stop-color="#8f7df2" stop-opacity=".18"/>
      <stop offset="1" stop-color="#111936" stop-opacity="0"/>
    </radialGradient>
  </defs>
  <rect width="1200" height="630" fill="url(#bg)"/>
  <rect width="1200" height="630" fill="url(#glow)"/>
  <g fill="#f8f2d8" opacity=".82">
    <circle cx="144" cy="92" r="2"/>
    <circle cx="296" cy="158" r="1.6"/>
    <circle cx="1016" cy="132" r="2.2"/>
    <circle cx="884" cy="486" r="1.7"/>
    <circle cx="1080" cy="392" r="1.2"/>
    <circle cx="214" cy="468" r="1.5"/>
    <circle cx="510" cy="90" r="1.3"/>
    <circle cx="730" cy="192" r="1.6"/>
  </g>
  <path d="M604 142 C558 230 558 324 604 488" stroke="#d9b45f" stroke-width="4" stroke-linecap="round" fill="none"/>
  <path d="M604 308 C510 306 426 262 356 178" stroke="#d8c9ff" stroke-width="4" stroke-linecap="round" fill="none" opacity=".86"/>
  <path d="M604 308 C690 296 784 246 868 166" stroke="#d8c9ff" stroke-width="4" stroke-linecap="round" fill="none" opacity=".86"/>
  <path d="M604 308 C706 344 786 414 856 520" stroke="#d8c9ff" stroke-width="4" stroke-linecap="round" fill="none" opacity=".86"/>
  <circle cx="604" cy="308" r="19" fill="#d9b45f"/>
  <text x="96" y="236" fill="#ffffff" font-family="system-ui, -apple-system, BlinkMacSystemFont, 'Segoe UI', sans-serif" font-size="76" font-weight="700">未来分岐占い</text>
  <text x="100" y="324" fill="#d8c9ff" font-family="system-ui, -apple-system, BlinkMacSystemFont, 'Segoe UI', sans-serif" font-size="36">今の選択で、未来はどう変わる？</text>
  <text x="100" y="404" fill="#ffffff" opacity=".86" font-family="system-ui, -apple-system, BlinkMacSystemFont, 'Segoe UI', sans-serif" font-size="28">このまま進む未来。動いた未来。手放した未来。</text>
</svg>
